<?xml version="1.0" encoding="UTF-8" standalone="no"?>
<!DOCTYPE svg PUBLIC "-//W3C//DTD SVG 1.1//EN" "http://www.w3.org/Graphics/SVG/1.1/DTD/svg11.dtd">
<!-- Generated by graphviz version 2.38.0 (20140413.2041)
 -->
<!-- Title: main Pages: 1 -->
<svg width="441pt" height="168pt" viewBox="0.00 0.00 441.00 168.40" xmlns="http://www.w3.org/2000/svg" xmlns:xlink="http://www.w3.org/1999/xlink">
<g id="graph0" class="graph" transform="scale(1 1) rotate(0) translate(4 164.396)">
<title>main</title>
<polygon fill="white" stroke="none" points="-4,4 -4,-164.396 437,-164.396 437,4 -4,4"/>
<!-- Node1 -->
<g id="node1" class="node"><title>Node1</title>
<polygon fill="#bfbfbf" stroke="black" points="0,-76.5 0,-95.5 39,-95.5 39,-76.5 0,-76.5"/>
<text text-anchor="middle" x="19.5" y="-83.5" font-family="Helvetica,sans-Serif" font-size="10.00">main</text>
</g>
<!-- Node2 -->
<g id="node2" class="node"><title>Node2</title>
<g id="a_node2"><a xlink:href="updateRoom_8cpp.html#a5c12bfd6704848dc1b4165b84f53c8e3" target="_top" xlink:title="promptForDouble">
<polygon fill="white" stroke="black" points="246.5,-133.5 246.5,-152.5 346.5,-152.5 346.5,-133.5 246.5,-133.5"/>
<text text-anchor="middle" x="296.5" y="-140.5" font-family="Helvetica,sans-Serif" font-size="10.00">promptForDouble</text>
</a>
</g>
</g>
<!-- Node1&#45;&gt;Node2 -->
<g id="edge1" class="edge"><title>Node1-&gt;Node2</title>
<path fill="none" stroke="midnightblue" d="M26.0663,-95.5273C34.6008,-109.069 52.3386,-133.314 75,-143 128.67,-165.939 196.626,-161.554 242.812,-154.255"/>
<polygon fill="midnightblue" stroke="midnightblue" points="243.621,-157.669 252.903,-152.56 242.461,-150.765 243.621,-157.669"/>
</g>
<!-- Node3 -->
<g id="node3" class="node"><title>Node3</title>
<g id="a_node3"><a xlink:href="updateRoom_8cpp.html#a334955a74c33e5d837de6484dc6a97da" target="_top" xlink:title="println">
<polygon fill="white" stroke="black" points="387,-38.5 387,-57.5 433,-57.5 433,-38.5 387,-38.5"/>
<text text-anchor="middle" x="410" y="-45.5" font-family="Helvetica,sans-Serif" font-size="10.00">println</text>
</a>
</g>
</g>
<!-- Node1&#45;&gt;Node3 -->
<g id="edge2" class="edge"><title>Node1-&gt;Node3</title>
<path fill="none" stroke="midnightblue" d="M39.2382,-84.1672C100.907,-78.1352 298.061,-58.8512 376.43,-51.1858"/>
<polygon fill="midnightblue" stroke="midnightblue" points="377.061,-54.6408 386.673,-50.1839 376.38,-47.674 377.061,-54.6408"/>
</g>
<!-- Node4 -->
<g id="node4" class="node"><title>Node4</title>
<g id="a_node4"><a xlink:href="updateRoom_8cpp.html#a93ae36efecfaf9cfed50fd4a0df7168d" target="_top" xlink:title="promptForDimensions">
<polygon fill="white" stroke="black" points="79.5,-114.5 79.5,-133.5 201.5,-133.5 201.5,-114.5 79.5,-114.5"/>
<text text-anchor="middle" x="140.5" y="-121.5" font-family="Helvetica,sans-Serif" font-size="10.00">promptForDimensions</text>
</a>
</g>
</g>
<!-- Node1&#45;&gt;Node4 -->
<g id="edge3" class="edge"><title>Node1-&gt;Node4</title>
<path fill="none" stroke="midnightblue" d="M39.0938,-91.9375C55.2725,-97.1038 79.272,-104.768 99.7507,-111.307"/>
<polygon fill="midnightblue" stroke="midnightblue" points="98.8805,-114.703 109.471,-114.411 101.01,-108.035 98.8805,-114.703"/>
</g>
<!-- Node5 -->
<g id="node5" class="node"><title>Node5</title>
<g id="a_node5"><a xlink:href="updateRoom_8cpp.html#a28a74d46fa2fe42ae30f5be103a460fb" target="_top" xlink:title="computeRoomMetrics">
<polygon fill="white" stroke="black" points="79.5,-38.5 79.5,-57.5 201.5,-57.5 201.5,-38.5 79.5,-38.5"/>
<text text-anchor="middle" x="140.5" y="-45.5" font-family="Helvetica,sans-Serif" font-size="10.00">computeRoomMetrics</text>
</a>
</g>
</g>
<!-- Node1&#45;&gt;Node5 -->
<g id="edge5" class="edge"><title>Node1-&gt;Node5</title>
<path fill="none" stroke="midnightblue" d="M39.0938,-80.0625C55.2725,-74.8962 79.272,-67.2325 99.7507,-60.6931"/>
<polygon fill="midnightblue" stroke="midnightblue" points="101.01,-63.9652 109.471,-57.589 98.8805,-57.2969 101.01,-63.9652"/>
</g>
<!-- Node6 -->
<g id="node6" class="node"><title>Node6</title>
<g id="a_node6"><a xlink:href="updateRoom_8cpp.html#af09aa512c089765ad6a720a221237a9d" target="_top" xlink:title="printAllRoomSummaries">
<polygon fill="white" stroke="black" points="75,-0.5 75,-19.5 206,-19.5 206,-0.5 75,-0.5"/>
<text text-anchor="middle" x="140.5" y="-7.5" font-family="Helvetica,sans-Serif" font-size="10.00">printAllRoomSummaries</text>
</a>
</g>
</g>
<!-- Node1&#45;&gt;Node6 -->
<g id="edge6" class="edge"><title>Node1-&gt;Node6</title>
<path fill="none" stroke="midnightblue" d="M27.1114,-76.4525C36.3784,-63.7766 54.421,-41.5364 75,-29 78.4348,-26.9076 82.1133,-25.0342 85.9077,-23.3589"/>
<polygon fill="midnightblue" stroke="midnightblue" points="87.4767,-26.5031 95.5056,-19.5903 84.9182,-19.9873 87.4767,-26.5031"/>
</g>
<!-- Node4&#45;&gt;Node2 -->
<g id="edge4" class="edge"><title>Node4-&gt;Node2</title>
<path fill="none" stroke="midnightblue" d="M201.923,-131.455C213.149,-132.84 224.868,-134.286 236.064,-135.667"/>
<polygon fill="midnightblue" stroke="midnightblue" points="235.816,-139.163 246.169,-136.914 236.673,-132.216 235.816,-139.163"/>
</g>
<!-- Node6&#45;&gt;Node3 -->
<g id="edge9" class="edge"><title>Node6-&gt;Node3</title>
<path fill="none" stroke="midnightblue" d="M187.911,-19.5124C204.883,-22.7957 224.267,-26.3187 242,-29 288.602,-36.0464 342.877,-41.7647 376.592,-45.0257"/>
<polygon fill="midnightblue" stroke="midnightblue" points="376.493,-48.5321 386.78,-45.9967 377.158,-41.5636 376.493,-48.5321"/>
</g>
<!-- Node7 -->
<g id="node7" class="node"><title>Node7</title>
<g id="a_node7"><a xlink:href="updateRoom_8cpp.html#aa215d41bc8221cd458eace73fea4df18" target="_top" xlink:title="printRoomSummary">
<polygon fill="white" stroke="black" points="242,-0.5 242,-19.5 351,-19.5 351,-0.5 242,-0.5"/>
<text text-anchor="middle" x="296.5" y="-7.5" font-family="Helvetica,sans-Serif" font-size="10.00">printRoomSummary</text>
</a>
</g>
</g>
<!-- Node6&#45;&gt;Node7 -->
<g id="edge7" class="edge"><title>Node6-&gt;Node7</title>
<path fill="none" stroke="midnightblue" d="M206.364,-10C214.779,-10 223.393,-10 231.789,-10"/>
<polygon fill="midnightblue" stroke="midnightblue" points="231.895,-13.5001 241.895,-10 231.895,-6.5001 231.895,-13.5001"/>
</g>
<!-- Node7&#45;&gt;Node3 -->
<g id="edge8" class="edge"><title>Node7-&gt;Node3</title>
<path fill="none" stroke="midnightblue" d="M325.636,-19.589C341.343,-24.9421 360.963,-31.6285 377.222,-37.1698"/>
<polygon fill="midnightblue" stroke="midnightblue" points="376.252,-40.5368 386.846,-40.4498 378.51,-33.911 376.252,-40.5368"/>
</g>
</g>
</svg>